<?xml version="1.0" encoding="UTF-8"?>
<!-- Created with Inkscape (http://www.inkscape.org/) -->
<svg width="1120.1" height="157.88" version="1.1" viewBox="0 0 1120.1 157.88" xml:space="preserve" xmlns="http://www.w3.org/2000/svg" xmlns:cc="http://creativecommons.org/ns#" xmlns:dc="http://purl.org/dc/elements/1.1/" xmlns:rdf="http://www.w3.org/1999/02/22-rdf-syntax-ns#"><title>Candoris Logo</title><metadata><rdf:RDF><cc:Work rdf:about=""><dc:format>image/svg+xml</dc:format><dc:type rdf:resource="http://purl.org/dc/dcmitype/StillImage"/><dc:title>Candoris Logo</dc:title></cc:Work></rdf:RDF></metadata><defs><clipPath id="clipPath26"><path d="M 0,118.412 H 840.038 V 0 H 0 Z"/></clipPath></defs><g transform="matrix(1.3333 0 0 -1.3333 0 157.88)"><g clip-path="url(#clipPath26)"><g transform="translate(519.09 6.312)"><path d="m0 0c-30.209 0-54.699 23.509-54.699 52.501 0 28.988 24.49 52.493 54.699 52.493 30.208 0 54.709-23.505 54.709-52.493 0-28.992-24.501-52.501-54.709-52.501m3.7 112.1c-34.066 0-61.683-26.508-61.683-59.21s27.617-59.202 61.683-59.202c34.07 0 61.699 26.5 61.699 59.202s-27.629 59.21-61.699 59.21" fill="#56873d"/></g><g transform="translate(522.48 24.753)"><path d="m0 0c-20.381 0-36.962 15.629-36.962 34.84 0 19.214 16.581 34.843 36.962 34.843 20.382 0 36.967-15.629 36.967-34.843 0-19.211-16.585-34.84-36.967-34.84m1.236 76.863c-24.749 0-44.883-19.027-44.883-42.415 0-23.382 20.134-42.406 44.883-42.406 24.746 0 44.877 19.024 44.877 42.406 0 23.388-20.131 42.415-44.877 42.415" fill="#80b040"/></g><g transform="translate(521.08 36.543)"><path d="m0 0c-14.61 0-26.497 10.278-26.497 22.916 0 12.637 11.887 22.923 26.497 22.923s26.497-10.286 26.497-22.923c0-12.638-11.887-22.916-26.497-22.916m0.896 51.203c-18.032 0-32.703-12.804-32.703-28.545 0-15.735 14.671-28.537 32.703-28.537 18.031 0 32.701 12.802 32.701 28.537 0 15.741-14.67 28.545-32.701 28.545" fill="#a0cd4e"/></g><g transform="translate(635.2 66.316)"><path d="m0 0h-19.796v35.821h19.796c2.932 0 5.838-0.236 8.72-0.707 2.88-0.471 5.445-1.335 7.698-2.592 2.252-1.257 4.059-3.064 5.421-5.42 1.359-2.357 2.042-5.421 2.042-9.191 0-3.771-0.683-6.835-2.042-9.191-1.362-2.357-3.169-4.164-5.421-5.421-2.253-1.257-4.818-2.121-7.698-2.592-2.882-0.472-5.788-0.707-8.72-0.707m23.96-8.091c3.402 1.83 6.284 4.085 8.641 6.756 2.356 2.67 4.164 5.655 5.42 8.955 1.257 3.299 1.885 6.729 1.885 10.291 0 3.456-0.525 7.043-1.571 10.762-1.048 3.717-2.906 7.07-5.577 10.055s-6.312 5.445-10.919 7.384c-4.61 1.937-10.476 2.907-17.597 2.907h-39.121v-111.24h15.083v49.019h16.811l28.28-49.019h18.853l-31.579 50.747c4.188 0.417 7.986 1.544 11.391 3.378m141.79-6.757c-2.726 3.824-6.104 6.861-10.134 9.113-4.033 2.252-8.432 4.006-13.197 5.263-4.768 1.258-9.167 2.672-13.198 4.243-4.034 1.571-7.411 3.613-10.133 6.127-2.726 2.514-4.085 6.127-4.085 10.841 0 1.674 0.339 3.508 1.02 5.498 0.681 1.989 1.859 3.85 3.536 5.578 1.674 1.728 3.901 3.142 6.677 4.242 2.774 1.1 6.257 1.65 10.448 1.65 4.399 0 8.327-0.892 11.784-2.671 3.456-1.783 6.127-4.139 8.012-7.07l12.254 11.155c-4.19 5.13-9.06 8.535-14.611 10.212-5.553 1.674-11.365 2.514-17.439 2.514-6.705 0-12.439-1.021-17.204-3.064-4.767-2.042-8.668-4.583-11.705-7.62-3.039-3.039-5.263-6.39-6.676-10.055-1.414-3.668-2.122-7.124-2.122-10.369 0-7.227 1.36-12.962 4.085-17.204 2.722-4.242 6.1-7.62 10.133-10.133 4.031-2.514 8.431-4.479 13.198-5.892 4.765-1.413 9.165-2.883 13.198-4.4 4.03-1.518 7.408-3.404 10.134-5.655 2.721-2.254 4.084-5.527 4.084-9.819 0-3.039-0.682-5.71-2.042-8.013-1.363-2.306-3.118-4.242-5.263-5.813-2.149-1.572-4.532-2.749-7.15-3.537-2.619-0.784-5.184-1.176-7.698-1.176-4.505 0-8.877 0.966-13.119 2.905-4.241 1.937-7.725 4.95-10.447 9.034l-12.412-10.683c3.77-5.239 8.849-9.114 15.24-11.626 6.388-2.514 13.143-3.771 20.267-3.771 5.342 0 10.37 0.786 15.083 2.356 4.713 1.572 8.798 3.823 12.254 6.756 3.456 2.932 6.206 6.545 8.248 10.841 2.043 4.293 3.065 9.113 3.065 14.455 0 6.7-1.363 11.965-4.085 15.788m-372.82-9.896c-2.514-5.185-5.92-9.506-10.213-12.962-4.295-3.458-9.297-6.05-15.004-7.777-5.71-1.729-11.758-2.594-18.146-2.594h-19.011v82.956h22.624c9.007 0 16.34-1.493 21.996-4.478s10.08-6.626 13.275-10.919c3.194-4.296 5.367-8.826 6.522-13.59 1.15-4.768 1.726-8.931 1.726-12.49 0-6.913-1.256-12.963-3.769-18.146m15.082 41.712c-1.676 4.085-3.955 8.064-6.834 11.94-2.883 3.874-6.496 7.306-10.84 10.291-4.348 2.986-9.483 5.366-15.399 7.149-5.917 1.779-12.804 2.671-20.659 2.671h-38.807v-111.24h36.293c9.95 0 18.72 1.571 26.316 4.713 7.594 3.143 13.957 7.305 19.09 12.491 5.131 5.185 9.006 11.101 11.625 17.754 2.617 6.65 3.928 13.535 3.928 20.66 0 3.456-0.368 7.226-1.1 11.311s-1.939 8.17-3.613 12.255m253.1-79.184h15.083v111.23h-15.083zm-622 15.239c-4.82-2.619-10.424-3.926-16.812-3.926-6.495 0-12.308 1.15-17.439 3.455-5.133 2.303-9.481 5.446-13.041 9.427-3.562 3.98-6.284 8.587-8.169 13.827-1.885 5.236-2.828 10.786-2.828 16.653 0 6.284 0.994 12.176 2.984 17.675 1.989 5.498 4.792 10.29 8.406 14.375s7.959 7.306 13.04 9.663c5.08 2.356 10.763 3.535 17.047 3.535 5.131 0 10.107-1.1 14.925-3.3 4.817-2.199 8.799-5.342 11.941-9.427l12.57 9.584c-4.506 5.865-10.291 10.213-17.362 13.04-7.07 2.829-14.273 4.243-21.603 4.243-8.589 0-16.445-1.468-23.567-4.399-7.124-2.934-13.224-7.046-18.303-12.334-5.081-5.29-9.034-11.574-11.861-18.853-2.828-7.281-4.243-15.215-4.243-23.802 0-7.02 1.309-13.958 3.928-20.817 2.617-6.862 6.415-13.016 11.391-18.461 4.974-5.448 10.998-9.846 18.067-13.198 7.07-3.351 15.004-5.027 23.803-5.027 6.388 0 12.019 0.813 16.889 2.436 4.871 1.622 9.034 3.506 12.491 5.656 3.456 2.145 6.23 4.292 8.327 6.441 2.094 2.146 3.56 3.795 4.399 4.949l-12.726 9.584c-3.353-4.713-7.438-8.382-12.254-10.999m235.19 4.557h-0.315l-61.273 91.439h-19.796v-111.24h15.082v91.439h0.315l61.902-91.439h19.167v111.24h-15.082zm-157.11 91.439-49.019-111.24h17.597l10.997 27.495h16.241v13.198h-10.899l21.053 51.06h0.314l20.739-51.06h-11.344v-13.198h16.843l11.155-27.495h17.597l-47.605 111.24z" fill="#56873d"/></g><g transform="translate(822.2 107.24)"><path d="m0 0c0.244-0.366 0.557-0.636 0.937-0.81s0.772-0.261 1.176-0.261c0.226 0 0.456 0.035 0.691 0.106 0.234 0.07 0.448 0.176 0.64 0.317 0.194 0.141 0.351 0.315 0.473 0.521 0.122 0.207 0.183 0.446 0.183 0.719 0 0.385-0.122 0.679-0.367 0.88-0.244 0.202-0.546 0.372-0.908 0.508s-0.757 0.268-1.183 0.395c-0.428 0.126-0.823 0.302-1.184 0.528-0.362 0.225-0.665 0.528-0.909 0.909-0.244 0.379-0.366 0.894-0.366 1.542 0 0.291 0.063 0.601 0.19 0.93s0.326 0.629 0.599 0.902c0.272 0.272 0.622 0.5 1.049 0.683s0.942 0.275 1.543 0.275c0.545 0 1.066-0.076 1.564-0.226s0.934-0.455 1.31-0.916l-1.098-1c-0.169 0.263-0.409 0.474-0.719 0.634s-0.662 0.239-1.057 0.239c-0.376 0-0.688-0.048-0.937-0.147-0.248-0.099-0.448-0.226-0.599-0.381-0.15-0.155-0.256-0.321-0.316-0.5-0.062-0.179-0.092-0.343-0.092-0.493 0-0.422 0.122-0.747 0.366-0.972 0.244-0.226 0.547-0.408 0.91-0.549 0.361-0.142 0.754-0.268 1.182-0.381s0.822-0.27 1.184-0.472c0.361-0.202 0.664-0.474 0.909-0.817 0.244-0.343 0.366-0.815 0.366-1.416 0-0.479-0.092-0.911-0.274-1.296-0.184-0.386-0.43-0.71-0.741-0.972-0.309-0.264-0.675-0.466-1.098-0.606-0.423-0.142-0.874-0.212-1.353-0.212-0.639 0-1.245 0.113-1.817 0.339-0.573 0.225-1.028 0.572-1.367 1.042z" fill="#56873d"/></g><g transform="translate(829.64 115.13)"><path d="m0 0h2.015l3.17-7.552h0.056l3.142 7.552h2.014v-9.975h-1.352v8.2h-0.028l-3.368-8.2h-0.901l-3.367 8.2h-0.028v-8.2h-1.353z" fill="#56873d"/></g></g></g></svg>
