<?xml version="1.0" encoding="UTF-8"?>
<!-- Created with Inkscape (http://www.inkscape.org/) -->
<svg width="725.41" height="696.18" version="1.1" viewBox="0 0 725.41 696.18" xml:space="preserve" xmlns="http://www.w3.org/2000/svg" xmlns:cc="http://creativecommons.org/ns#" xmlns:dc="http://purl.org/dc/elements/1.1/" xmlns:rdf="http://www.w3.org/1999/02/22-rdf-syntax-ns#"><metadata><rdf:RDF><cc:Work rdf:about=""><dc:format>image/svg+xml</dc:format><dc:type rdf:resource="http://purl.org/dc/dcmitype/StillImage"/><dc:title/></cc:Work></rdf:RDF></metadata><defs><clipPath id="clipPath3764"><path d="m0 576h576v-576h-576z"/></clipPath></defs><g transform="matrix(1.3333 0 0 -1.3333 -21.295 744.02)"><g clip-path="url(#clipPath3764)"><g transform="translate(271.65 63.711)"><path d="m0 0c-133.21 0-241.2 103.66-241.2 231.5 0 127.82 107.99 231.47 241.2 231.47 133.2 0 241.24-103.65 241.24-231.47 0-127.84-108.04-231.5-241.24-231.5m16.316 494.31c-150.22 0-271.99-116.89-271.99-261.09 0-144.2 121.78-261.05 271.99-261.05 150.23 0 272.06 116.85 272.06 261.05 0 144.2-121.83 261.09-272.06 261.09" fill="#56873d"/></g><g transform="translate(286.64 145.03)"><path d="m0 0c-89.87 0-162.98 68.915-162.98 153.63 0 84.722 73.114 153.64 162.98 153.64 89.874 0 163-68.916 163-153.64 0-84.715-73.131-153.63-163-153.63m5.452 338.93c-109.13 0-197.92-83.902-197.92-187.03 0-103.1 88.784-186.99 197.92-186.99 109.12 0 197.88 83.888 197.88 186.99 0 103.13-88.767 187.03-197.88 187.03" fill="#80b040"/></g><g transform="translate(280.44 197.02)"><path d="m0 0c-64.424 0-116.84 45.322-116.84 101.05 0 55.722 52.415 101.08 116.84 101.08 64.425 0 116.84-45.355 116.84-101.08 0-55.726-52.414-101.05-116.84-101.05m3.949 225.78c-79.509 0-144.2-56.456-144.2-125.87 0-69.385 64.691-125.83 144.2-125.83s144.2 56.445 144.2 125.83c0 69.413-64.687 125.87-144.2 125.87" fill="#a0cd4e"/></g></g></g></svg>
